<?xml version="1.0" ?><!DOCTYPE svg  PUBLIC '-//W3C//DTD SVG 1.1//EN'  'http://www.w3.org/Graphics/SVG/1.1/DTD/svg11.dtd'><svg enable-background="new 0 0 512 512" id="Layer_1" version="1.1" viewBox="0 0 512 512" xml:space="preserve" xmlns="http://www.w3.org/2000/svg" xmlns:xlink="http://www.w3.org/1999/xlink"><g><path d="M500.4,256c0,135-109.4,244.5-244.5,244.5c-48.8,0-94.3-14.3-132.5-39c-4.3-2.8-8.4-5.6-12.5-8.7   c-4.6-3.4-9.1-6.9-13.4-10.6C45,397.4,11.5,330.6,11.5,256C11.5,121,121,11.5,256,11.5S500.4,121,500.4,256z" fill="#CECECE"/><path d="M319.7,214.5l-2.3,56.2l-1,25.2l-5.6,11.6l-9.7,20l-3.2,6.6c-5.7,3.2-11.1,5.5-16.1,7.1c0,0,0,0,0,0   c-14.7,4.5-27,3-37.4-0.6c-5.3-1.8-10.2-4.2-14.6-6.5l-7.2-16.9l-3.7-8.7l-4.5-10.5l-14.9-35l35.4-52l29.9-38.2L319.7,214.5z" fill="#F99D0B"/><path d="M323.7,311.3c-7,7.9-15.6,15.6-25.9,22.9c0.8-1.9,1.5-3.7,2.1-5.7c2.2-6.4,3.9-13.1,5-19.9   c0.1-0.8,0.3-1.6,0.4-2.4c1.7-11.5,1.9-23.3,0.7-34.9c-0.6-6-1.5-12.1-2.9-17.9c-5.7-25.6-17.8-48.9-34.7-63.7   c1.8,10.1,0.5,32.7-7.3,52.3c-2.3,5.7-5.1,11.2-8.5,16.1c0.7-4.5,0.9-8.7,0.8-12.4c-0.5-14.8-6-23.8-6-23.8s-2.8,20-13.8,40.2   c-0.3,0.5-0.6,1.1-0.9,1.7c-6.6,12.3-11.5,25.3-9.9,43c0,0.3,0,0.6,0.1,0.9c0.8,7.9,2.9,16.6,6.8,26.7c-5-3.5-9.5-7-13.6-10.5   c-2.6-2.2-5.1-4.5-7.4-6.7c-1.3-1.3-2.6-2.6-3.9-3.9c-21-22.3-26.1-45.3-21.4-74.2c4.6-28.1,21.7-51,23.1-79   c6.5,14.8,7.2,25.4,8,40.9c20.6-31.6,41.9-74,37.3-112.7c0,0,39,15.4,54.7,90.5c9.3-10.4,8.4-31.8,3.8-44.5   C322.8,145.4,388.7,238.1,323.7,311.3z" fill="#FF4800"/><path d="M266.9,318.2l-6.2,6.2l-15.3,15.3l-1.1,1.1L123.5,461.5c-4.3-2.8-8.4-5.6-12.5-8.7   c-4.6-3.4-9.1-6.9-13.4-10.6l146.6-146.6l12,12L266.9,318.2z" fill="#EFB93F"/><path d="M317.4,270.7c-2.7-4.8-6.5-9.6-11.3-14.4c-0.9-0.9-1.9-1.9-3-2.8c-7-6.5-17-13.6-29.8-13.6   c-4.1,0-8.2,0.7-12.2,2.2c-2.6,0.9-5.2,2.1-7.8,3.6c-5,2.9-9.9,6.8-15,11.9c-2,2-3.9,4-5.7,6.1c-9.1,10.8-15.5,22.8-18.4,34.4   c-1.3,5.1-1.9,10.2-1.8,15.1l-3.8,3.8c2.3,2.2,4.8,4.5,7.4,6.7l6.7-6.7c-0.4-3.3-0.4-6.7,0-10.3c1.7-13.5,9.6-29,22.6-42   c23-23,39.2-15.8,53.6-1.3c2.6,2.6,5,5.3,7,8c7.7,10.6,9.9,22.5-1.1,37.3c-2,2.7-4.3,5.4-7.2,8.3c-16.5,16.5-36.9,24.8-52.4,22.7   l-1.1,1.1c10.4,3.6,22.7,5.2,37.4,0.6c0,0,0,0,0,0c6.3-3.4,12.5-7.7,18.3-12.7c0.4-0.3,0.7-0.6,1.1-1c1.3-1.2,2.5-2.4,3.8-3.6   C323.1,305.8,327.2,288.2,317.4,270.7z" opacity="0.2"/><path d="M297.8,317c-16.5,16.5-36.9,24.8-52.4,22.7l-21.9,21.9L200.9,339l21.9-21.9c-2.1-15.5,6.1-35.8,22.7-52.4   c23-23,39.2-15.8,53.6-1.3S320.7,294,297.8,317z" fill="#1D2738"/><path d="M266.9,318.2l-6.2,6.2l-15.3,15.3l-1.1,1.1L123.5,461.5c-4.3-2.8-8.4-5.6-12.5-8.7l145.3-145.3L266.9,318.2z   " opacity="0.2"/><path d="M297.8,317c-16.5,16.5-36.9,24.8-52.4,22.7l-21.9,21.9L200.9,339l21.9-21.9c-2.1-15.5,6.1-35.8,22.7-52.4   c23-23,39.2-15.8,53.6-1.3S320.7,294,297.8,317z" fill="#1D2738"/><path d="M299.1,263.4c-0.8-0.8-1.7-1.6-2.5-2.4c8.6,12.3,9.7,26.4-8.8,44.8c-16.5,16.5-36.9,24.8-52.4,22.7   l-21.9,21.9l-12-12l-0.6,0.6l22.6,22.6l21.9-21.9c15.5,2.1,35.8-6.1,52.4-22.7C320.7,294,313.5,277.8,299.1,263.4z" opacity="0.2"/></g></svg>